<?xml version="1.0" encoding="UTF-8"?>
<svg width="262px" height="64px" viewBox="0 0 262 64" version="1.1" xmlns="http://www.w3.org/2000/svg" xmlns:xlink="http://www.w3.org/1999/xlink">
    <!-- Generator: Sketch 61.2 (89653) - https://sketch.com -->
    <title>Combined Shape</title>
    <desc>Created with Sketch.</desc>
    <defs>
        <linearGradient x1="6.25860412%" y1="56.2954699%" x2="100%" y2="56.2954699%" id="linearGradient-1">
            <stop stop-color="#F337AC" offset="0%"></stop>
            <stop stop-color="#16CDFE" offset="52.948163%"></stop>
            <stop stop-color="#03FF8C" offset="100%"></stop>
        </linearGradient>
    </defs>
    <g id="Itérations-Charte-" stroke="none" stroke-width="1" fill="none" fill-rule="evenodd">
        <g id="Export" transform="translate(-150.000000, -1350.000000)" fill="url(#linearGradient-1)" fill-rule="nonzero">
            <path d="M254.324597,1366.55021 C261.661066,1366.55021 267.765009,1368.78038 272.636425,1373.24072 C277.625224,1377.64237 280.119624,1383.36451 280.119624,1390.40715 C280.119624,1397.3911 277.65457,1403.08391 272.724462,1407.48556 C267.735663,1411.82852 261.63172,1414 254.412634,1414 C247.193548,1414 241.089606,1411.82852 236.100806,1407.48556 C231.170699,1403.08391 228.705645,1397.3911 228.705645,1390.40715 C228.705645,1383.48189 231.170699,1377.75974 236.100806,1373.24072 C240.972222,1368.78038 247.046819,1366.55021 254.324597,1366.55021 Z M309.612231,1366.55021 C316.948701,1366.55021 323.052643,1368.78038 327.924059,1373.24072 C332.912858,1377.64237 335.407258,1383.36451 335.407258,1390.40715 C335.407258,1397.3911 332.942204,1403.08391 328.012097,1407.48556 C323.023297,1411.82852 316.919355,1414 309.700269,1414 C302.481183,1414 296.37724,1411.82852 291.388441,1407.48556 C286.458333,1403.08391 283.99328,1397.3911 283.99328,1390.40715 C283.99328,1383.48189 286.458333,1377.75974 291.388441,1373.24072 C296.259857,1368.78038 302.334453,1366.55021 309.612231,1366.55021 Z M214.443548,1350 L214.701745,1350.00354 C217.757661,1350.08842 219.285618,1351.70118 219.285618,1354.84182 L219.285618,1354.84182 L219.285618,1395.51307 L219.288654,1395.78805 C219.345322,1398.31453 220.195341,1399.71943 221.83871,1400.00275 C224.18638,1400.23751 225.360215,1401.61669 225.360215,1404.1403 L225.360215,1404.1403 L225.360215,1408.45392 L225.356801,1408.70997 C225.272584,1411.82584 223.630353,1413.38377 220.430108,1413.38377 C216.028226,1413.38377 212.330645,1412.44475 209.337366,1410.56671 C205.81586,1408.33654 204.055108,1403.55342 204.055108,1396.21733 L204.055108,1396.21733 L204.055108,1354.84182 L204.058644,1354.58363 C204.143531,1351.52788 205.756375,1350 208.897177,1350 L208.897177,1350 L214.443548,1350 Z M173.153898,1350 L173.747727,1350.00396 C180.041812,1350.08846 185.052762,1351.52502 188.780578,1354.31362 C192.624888,1357.18936 194.547043,1361.23888 194.547043,1366.46217 C194.547043,1369.16185 193.901434,1371.72948 192.610215,1374.16506 C191.318996,1376.60064 189.528898,1378.49335 187.239919,1379.84319 L187.239919,1379.84319 L187.239919,1380.01926 L187.639375,1380.1481 C190.670814,1381.16751 192.988043,1382.91457 194.591062,1385.38927 C196.263777,1387.97157 197.100134,1390.90601 197.100134,1394.19257 C197.100134,1400.53095 194.840502,1405.25539 190.321237,1408.36589 C185.860663,1411.4177 180.138217,1412.9436 173.153898,1412.9436 L173.153898,1412.9436 L154.84207,1412.9436 L154.583873,1412.94007 C151.527958,1412.85519 150,1411.24243 150,1408.10179 L150,1408.10179 L150,1354.84182 L150.003537,1354.58363 C150.088423,1351.52788 151.701268,1350 154.84207,1350 L154.84207,1350 L173.153898,1350 Z M397.297715,1366.55021 C401.934364,1366.55021 405.543907,1367.94406 408.126344,1370.73177 C410.708781,1373.51949 412,1377.78909 412,1383.54058 L412,1383.54058 L412,1408.10179 L411.996463,1408.35997 C411.911577,1411.41573 410.298732,1412.9436 407.15793,1412.9436 L407.15793,1412.9436 L401.611559,1412.9436 L401.353363,1412.94007 C398.297447,1412.85519 396.769489,1411.24243 396.769489,1408.10179 L396.769489,1408.10179 L396.769489,1386.09354 L396.766772,1385.78005 C396.70337,1382.17428 395.530441,1380.37139 393.247984,1380.37139 C390.313396,1380.37139 388.127128,1381.58918 386.68918,1384.02476 C385.251232,1386.46034 384.532258,1389.70289 384.532258,1393.75241 L384.532258,1393.75241 L384.532258,1408.10179 L384.528721,1408.35997 C384.443835,1411.41573 382.83099,1412.9436 379.690188,1412.9436 L379.690188,1412.9436 L374.143817,1412.9436 L373.885621,1412.94007 C370.829705,1412.85519 369.301747,1411.24243 369.301747,1408.10179 L369.301747,1408.10179 L369.301747,1386.09354 L369.29903,1385.78005 C369.235629,1382.17428 368.062699,1380.37139 365.780242,1380.37139 C362.786962,1380.37139 360.586022,1381.58918 359.177419,1384.02476 C357.768817,1386.46034 357.064516,1389.70289 357.064516,1393.75241 L357.064516,1393.75241 L357.064516,1408.10179 L357.060979,1408.35997 C356.976093,1411.41573 355.363248,1412.9436 352.222446,1412.9436 L352.222446,1412.9436 L346.676075,1412.9436 L346.417879,1412.94007 C343.361963,1412.85519 341.834005,1411.24243 341.834005,1408.10179 L341.834005,1408.10179 L341.834005,1372.44842 L341.837542,1372.19024 C341.922429,1369.13448 343.535273,1367.6066 346.676075,1367.6066 L346.676075,1367.6066 L351.606183,1367.6066 L351.859685,1367.61014 C354.860038,1367.69502 356.360215,1369.30778 356.360215,1372.44842 L356.360215,1372.44842 L356.360215,1373.24072 L356.272177,1374.38514 L356.448253,1374.38514 L356.685945,1374.03306 C360.115684,1369.04449 364.526373,1366.55021 369.918011,1366.55021 C376.021953,1366.55021 380.24776,1369.10316 382.59543,1374.20908 L382.59543,1374.20908 L382.771505,1374.20908 L383.002468,1373.85043 C384.345133,1371.83653 386.263665,1370.13674 388.758065,1368.75103 C391.399194,1367.28381 394.245744,1366.55021 397.297715,1366.55021 Z M254.412634,1379.22696 C251.478047,1379.22696 249.027666,1380.26868 247.061492,1382.35213 C245.095318,1384.43558 244.112231,1387.12059 244.112231,1390.40715 C244.112231,1393.63503 245.095318,1396.26135 247.061492,1398.28611 C249.027666,1400.31087 251.478047,1401.32325 254.412634,1401.32325 C257.347222,1401.32325 259.797603,1400.31087 261.763777,1398.28611 C263.729951,1396.26135 264.713038,1393.63503 264.713038,1390.40715 C264.713038,1387.12059 263.729951,1384.43558 261.763777,1382.35213 C259.797603,1380.26868 257.347222,1379.22696 254.412634,1379.22696 Z M309.700269,1379.22696 C306.765681,1379.22696 304.3153,1380.26868 302.349126,1382.35213 C300.382953,1384.43558 299.399866,1387.12059 299.399866,1390.40715 C299.399866,1393.63503 300.382953,1396.26135 302.349126,1398.28611 C304.3153,1400.31087 306.765681,1401.32325 309.700269,1401.32325 C312.634857,1401.32325 315.085237,1400.31087 317.051411,1398.28611 C319.017585,1396.26135 320.000672,1393.63503 320.000672,1390.40715 C320.000672,1387.12059 319.017585,1384.43558 317.051411,1382.35213 C315.085237,1380.26868 312.634857,1379.22696 309.700269,1379.22696 Z M174.738575,1386.70977 L165.406586,1386.70977 L165.406586,1399.73865 L174.650538,1399.73865 C176.704749,1399.73865 178.333445,1399.12242 179.536626,1397.88996 C180.739807,1396.6575 181.341398,1395.0729 181.341398,1393.13618 C181.341398,1391.19945 180.769153,1389.6442 179.624664,1388.47043 C178.480175,1387.29665 176.851478,1386.70977 174.738575,1386.70977 L174.738575,1386.70977 Z M173.06586,1363.20495 L165.406586,1363.20495 L165.406586,1374.38514 L173.329973,1374.38514 C175.090726,1374.38514 176.455309,1373.84227 177.423723,1372.75653 C178.392137,1371.67079 178.876344,1370.27694 178.876344,1368.57497 C178.876344,1366.93168 178.377464,1365.62586 177.379704,1364.6575 C176.381944,1363.68913 174.943996,1363.20495 173.06586,1363.20495 L173.06586,1363.20495 Z M291.095541,1350 L291.357065,1350.00348 C294.452355,1350.08705 296,1351.67477 296,1354.76667 L296,1354.76667 L296,1358.23333 L295.996417,1358.48751 C295.910437,1361.49584 294.276812,1363 291.095541,1363 L291.095541,1363 L272.904459,1363 L272.642935,1362.99652 C269.547645,1362.91295 268,1361.32523 268,1358.23333 L268,1358.23333 L268,1354.76667 L268.003583,1354.51249 C268.089563,1351.50416 269.723188,1350 272.904459,1350 L272.904459,1350 L291.095541,1350 Z" id="Combined-Shape"></path>
        </g>
    </g>
</svg>